<svg width="22" height="22" viewBox="0 0 22 22" fill="none" xmlns="http://www.w3.org/2000/svg">
<path fill-rule="evenodd" clip-rule="evenodd" d="M18 2H4C2.89543 2 2 2.89543 2 4V18C2 19.1046 2.89543 20 4 20H18C19.1046 20 20 19.1046 20 18V4C20 2.89543 19.1046 2 18 2ZM4 0C1.79086 0 0 1.79086 0 4V18C0 20.2091 1.79086 22 4 22H18C20.2091 22 22 20.2091 22 18V4C22 1.79086 20.2091 0 18 0H4ZM7 5C7 4.44772 7.44772 4 8 4H14C14.5523 4 15 4.44772 15 5C15 5.55228 14.5523 6 14 6H8C7.44772 6 7 5.55228 7 5ZM5 8C4.44772 8 4 8.44772 4 9C4 9.55229 4.44772 10 5 10H17C17.5523 10 18 9.55229 18 9C18 8.44771 17.5523 8 17 8H5ZM4 13C4 12.4477 4.44772 12 5 12H9C9.55228 12 10 12.4477 10 13C10 13.5523 9.55228 14 9 14H5C4.44772 14 4 13.5523 4 13ZM5 16C4.44772 16 4 16.4477 4 17C4 17.5523 4.44772 18 5 18H15C15.5523 18 16 17.5523 16 17C16 16.4477 15.5523 16 15 16H5Z" fill="black"/>
</svg>
