<svg width="22" height="22" viewBox="0 0 22 22" fill="none" xmlns="http://www.w3.org/2000/svg">
<path fill-rule="evenodd" clip-rule="evenodd" d="M20 6V18C20 19.1046 19.1046 20 18 20H4C2.89543 20 2 19.1046 2 18V6C2 4.89543 2.89543 4 4 4V5C4 5.55228 4.44772 6 5 6C5.55228 6 6 5.55228 6 5V4H8V5C8 5.55228 8.44771 6 9 6C9.55228 6 10 5.55228 10 5V4H12V5C12 5.55228 12.4477 6 13 6C13.5523 6 14 5.55228 14 5V4L16 4V5C16 5.55228 16.4477 6 17 6C17.5523 6 18 5.55228 18 5V4C19.1046 4 20 4.89543 20 6ZM0 6C0 3.79086 1.79086 2 4 2V1C4 0.447715 4.44772 0 5 0C5.55228 0 6 0.447715 6 1V2H8V1C8 0.447715 8.44771 0 9 0C9.55228 0 10 0.447715 10 1V2L12 2V1C12 0.447715 12.4477 0 13 0C13.5523 0 14 0.447715 14 1V2H16V1C16 0.447715 16.4477 0 17 0C17.5523 0 18 0.447715 18 1V2C20.2091 2 22 3.79086 22 6V18C22 20.2091 20.2091 22 18 22H4C1.79086 22 0 20.2091 0 18V6ZM5 8C4.44772 8 4 8.44772 4 9C4 9.55229 4.44772 10 5 10L17 10C17.5523 10 18 9.55229 18 9C18 8.44771 17.5523 8 17 8L5 8ZM4 13C4 12.4477 4.44772 12 5 12L17 12C17.5523 12 18 12.4477 18 13C18 13.5523 17.5523 14 17 14L5 14C4.44772 14 4 13.5523 4 13ZM5 16C4.44772 16 4 16.4477 4 17C4 17.5523 4.44772 18 5 18H17C17.5523 18 18 17.5523 18 17C18 16.4477 17.5523 16 17 16H5Z" fill="black"/>
</svg>
