<svg width="22" height="22" viewBox="0 0 22 22" fill="none" xmlns="http://www.w3.org/2000/svg">
<path fill-rule="evenodd" clip-rule="evenodd" d="M2 6.53513C2.58835 6.19479 3.27143 6 4 6H18C18.7286 6 19.4117 6.19479 20 6.53513V6C20 4.89543 19.1046 4 18 4H4C2.89543 4 2 4.89543 2 6V6.53513ZM0 5V6V8.04706V10V10.0235V18C0 20.2091 1.79086 22 4 22H18C20.2091 22 22 20.2091 22 18V10.0235V10V6C22 3.79086 20.2091 2 18 2H13C13 0.895431 12.1046 0 11 0H5C2.23858 0 0 2.23858 0 5ZM20 10C20 8.89543 19.1046 8 18 8H4C2.89543 8 2 8.89543 2 10V18C2 19.1046 2.89543 20 4 20H18C19.1046 20 20 19.1046 20 18V10Z" fill="black"/>
</svg>
