<svg width="22" height="22" viewBox="0 0 22 22" fill="none" xmlns="http://www.w3.org/2000/svg">
<path fill-rule="evenodd" clip-rule="evenodd" d="M18 2H4C2.89543 2 2 2.89543 2 4V19.2602C2 19.6688 2.33124 20 2.73985 20C2.95583 20 3.16102 19.9056 3.30158 19.7416L8.42049 13.7696C9.70512 12.0159 12.3474 12.03 13.6101 13.812L18.1633 19.607C18.3583 19.8551 18.6563 20 18.9718 20C19.5397 20 20 19.5397 20 18.9718V4C20 2.89543 19.1046 2 18 2ZM12 15L16.5907 20.8427C17.1648 21.5734 18.0426 22 18.9718 22C20.6442 22 22 20.6442 22 18.9718V4C22 1.79086 20.2091 0 18 0H4C1.79086 0 0 1.79086 0 4V19.2602C0 20.7733 1.22667 22 2.73985 22C3.53968 22 4.29957 21.6505 4.8201 21.0432L10 15C10.4757 14.2864 11.5243 14.2864 12 15Z" fill="black"/>
</svg>
